<svg width="20" height="21" viewBox="0 0 20 21" fill="none" xmlns="http://www.w3.org/2000/svg">
<path fill-rule="evenodd" clip-rule="evenodd" d="M10 2.5C5.58174 2.5 2.00002 6.08172 2.00002 10.5C2.00002 11.8241 2.32093 13.0704 2.88834 14.168C2.99337 14.3712 3.02558 14.6042 2.9796 14.8282L2.28445 18.2156L5.67178 17.5204C5.89583 17.4744 6.12886 17.5066 6.33203 17.6117C7.42966 18.1791 8.6759 18.5 10 18.5C14.4183 18.5 18 14.9183 18 10.5C18 6.08172 14.4183 2.5 10 2.5ZM1.67435e-05 10.5C1.67435e-05 4.97715 4.47717 0.5 10 0.5C15.5229 0.5 20 4.97715 20 10.5C20 16.0228 15.5229 20.5 10 20.5C8.47733 20.5 7.03181 20.159 5.73782 19.5485L1.20105 20.4796C0.87178 20.5472 0.53059 20.4448 0.29291 20.2071C0.0552298 19.9694 -0.0471408 19.6282 0.0204319 19.299L0.951473 14.7622C0.341006 13.4682 1.67435e-05 12.0227 1.67435e-05 10.5Z" fill="#292929"/>
<path fill-rule="evenodd" clip-rule="evenodd" d="M4 10.5C4 9.67157 4.67157 9 5.5 9H5.51C6.33843 9 7.01 9.67157 7.01 10.5V10.51C7.01 11.3384 6.33843 12.01 5.51 12.01H5.5C4.67157 12.01 4 11.3384 4 10.51V10.5Z" fill="#292929"/>
<path fill-rule="evenodd" clip-rule="evenodd" d="M8.5 10.5C8.5 9.67157 9.17157 9 10 9H10.01C10.8384 9 11.51 9.67157 11.51 10.5V10.51C11.51 11.3384 10.8384 12.01 10.01 12.01H10C9.17157 12.01 8.5 11.3384 8.5 10.51V10.5Z" fill="#292929"/>
<path fill-rule="evenodd" clip-rule="evenodd" d="M13 10.5C13 9.67157 13.6716 9 14.5 9H14.51C15.3384 9 16.01 9.67157 16.01 10.5V10.51C16.01 11.3384 15.3384 12.01 14.51 12.01H14.5C13.6716 12.01 13 11.3384 13 10.51V10.5Z" fill="#292929"/>
</svg>
