<svg width="29" height="37" viewBox="0 0 29 37" fill="none" xmlns="http://www.w3.org/2000/svg">
<path fill-rule="evenodd" clip-rule="evenodd" d="M0 1.8125C0 0.811484 0.811484 0 1.8125 0H18.125C18.6057 0 19.0667 0.190959 19.4066 0.530869L28.4691 9.59337C28.809 9.93328 29 10.3943 29 10.875V30.8125C29 33.8155 26.5655 36.25 23.5625 36.25H5.4375C2.43445 36.25 0 33.8155 0 30.8125V1.8125ZM3.625 3.625V30.8125C3.625 31.8135 4.43648 32.625 5.4375 32.625H23.5625C24.5635 32.625 25.375 31.8135 25.375 30.8125V11.6258L17.3742 3.625H3.625Z" fill="#292929"/>
<path fill-rule="evenodd" clip-rule="evenodd" d="M14.5 18.125C15.501 18.125 16.3125 18.9365 16.3125 19.9375V27.1875C16.3125 28.1885 15.501 29 14.5 29C13.499 29 12.6875 28.1885 12.6875 27.1875V19.9375C12.6875 18.9365 13.499 18.125 14.5 18.125Z" fill="#292929"/>
<path fill-rule="evenodd" clip-rule="evenodd" d="M9.0625 23.5625C9.0625 22.5615 9.87398 21.75 10.875 21.75H18.125C19.126 21.75 19.9375 22.5615 19.9375 23.5625C19.9375 24.5635 19.126 25.375 18.125 25.375H10.875C9.87398 25.375 9.0625 24.5635 9.0625 23.5625Z" fill="#292929"/>
<path fill-rule="evenodd" clip-rule="evenodd" d="M14.5 12.6875V1.8125H18.125V10.875H27.1875V14.5H16.3125C15.3115 14.5 14.5 13.6885 14.5 12.6875Z" fill="#292929"/>
</svg>
