<svg width="51" height="50" viewBox="0 0 51 50" fill="none" xmlns="http://www.w3.org/2000/svg">
<path d="M25.7385 49C39.4011 49 50.4769 38.2548 50.4769 25C50.4769 11.7452 39.4011 1 25.7385 1C12.0758 1 1 11.7452 1 25C1 38.2548 12.0758 49 25.7385 49Z" fill="url(#paint0_linear_332_396)" stroke="#040000" stroke-miterlimit="10"/>
<path d="M38.8125 24.5271C39.2932 24.5271 39.7622 24.5693 40.2158 24.6472V21.2076C40.2158 17.8394 37.0679 15.1082 33.184 15.1082H18.2974C14.4135 15.1082 11.2656 17.8394 11.2656 21.2076V24.6425C11.7105 24.5674 12.1699 24.5261 12.6408 24.5261C16.5847 24.5261 19.7829 27.2996 19.7829 30.7204C19.7829 32.3229 19.0817 33.7827 17.9309 34.8824C18.0527 34.888 18.1756 34.8908 18.2984 34.8908H33.185C33.2991 34.8908 33.4123 34.888 33.5254 34.8833C32.3746 33.7837 31.6724 32.3229 31.6724 30.7204C31.6724 27.2996 34.8697 24.5261 38.8145 24.5261L38.8125 24.5271Z" fill="white" stroke="#040000" stroke-miterlimit="10"/>
<path d="M40.2152 28.7923V24.6472C39.7617 24.5684 39.2926 24.5271 38.812 24.5271C34.8681 24.5271 31.6699 27.3005 31.6699 30.7213C31.6699 32.3238 32.372 33.7837 33.5229 34.8843C37.2482 34.7304 40.2152 32.062 40.2152 28.7923Z" fill="#E77162" stroke="#040000" stroke-miterlimit="10"/>
<path d="M12.6389 24.5271C12.1689 24.5271 11.7085 24.5674 11.2637 24.6434V28.7923C11.2637 32.0536 14.2153 34.7173 17.928 34.8833C19.0788 33.7837 19.78 32.3238 19.78 30.7213C19.78 27.3005 16.5827 24.5271 12.6379 24.5271H12.6389Z" fill="#E77162" stroke="#040000" stroke-miterlimit="10"/>
<path d="M32.8099 24.9352C33.5656 24.9352 34.1783 23.8032 34.1783 22.4067C34.1783 21.0102 33.5656 19.8782 32.8099 19.8782C32.0541 19.8782 31.4414 21.0102 31.4414 22.4067C31.4414 23.8032 32.0541 24.9352 32.8099 24.9352Z" fill="#040000" stroke="#040000" stroke-miterlimit="10"/>
<path d="M18.3821 24.9352C19.1379 24.9352 19.7506 23.8032 19.7506 22.4067C19.7506 21.0102 19.1379 19.8782 18.3821 19.8782C17.6263 19.8782 17.0137 21.0102 17.0137 22.4067C17.0137 23.8032 17.6263 24.9352 18.3821 24.9352Z" fill="#040000" stroke="#040000" stroke-miterlimit="10"/>
<path d="M28.5879 27.7153C27.4061 27.7153 26.3036 26.9028 25.9129 26.581C25.8288 26.5116 25.703 26.5116 25.6208 26.5838C24.4584 27.5999 22.8984 27.7153 22.8984 27.7153" stroke="#040000" stroke-width="2" stroke-miterlimit="10" stroke-linecap="round"/>
<path d="M32.356 20.7949C32.356 20.6497 32.473 20.5576 32.5852 20.5576C32.6974 20.5576 32.8145 20.6497 32.8145 20.7949C32.8145 20.9402 32.6974 21.0322 32.5852 21.0322C32.473 21.0322 32.356 20.9402 32.356 20.7949Z" fill="white" stroke="#040000"/>
<path d="M17.899 20.7949C17.899 20.6497 18.016 20.5576 18.1282 20.5576C18.2404 20.5576 18.3574 20.6497 18.3574 20.7949C18.3574 20.9402 18.2404 21.0322 18.1282 21.0322C18.016 21.0322 17.899 20.9402 17.899 20.7949Z" fill="white" stroke="#040000"/>
<defs>
<linearGradient id="paint0_linear_332_396" x1="-1.71852" y1="25" x2="47.7584" y2="25" gradientUnits="userSpaceOnUse">
<stop stop-color="#F7E27C"/>
<stop offset="0.11" stop-color="#CFD684"/>
<stop offset="0.26" stop-color="#A5C98E"/>
<stop offset="0.4" stop-color="#82BF96"/>
<stop offset="0.55" stop-color="#66B79D"/>
<stop offset="0.69" stop-color="#53B1A1"/>
<stop offset="0.84" stop-color="#47AEA4"/>
<stop offset="1" stop-color="#44ADA5"/>
</linearGradient>
</defs>
</svg>
