<svg width="37" height="37" viewBox="0 0 37 37" fill="none" xmlns="http://www.w3.org/2000/svg">
<path fill-rule="evenodd" clip-rule="evenodd" d="M0.039815 7.05728C-0.494984 2.2067 4.45869 -1.35379 8.83533 0.735461L33.4625 12.4916C38.1792 14.7431 38.1792 21.5068 33.4625 23.7584L8.83533 35.5145C4.4587 37.6038 -0.494985 34.0433 0.0398148 29.1927L1.26008 18.125L0.039815 7.05728ZM5.18 20.2028L4.13822 29.6516C3.95996 31.2685 5.61118 32.4553 7.07006 31.7589L31.6972 20.0028C33.2694 19.2523 33.2694 16.9977 31.6972 16.2472L7.07006 4.49109C5.61119 3.79468 3.95996 4.9815 4.13822 6.59836L5.18 16.0472H17.7673C18.906 16.0472 19.8291 16.9774 19.8291 18.125C19.8291 19.2726 18.906 20.2028 17.7673 20.2028H5.18Z" fill="#292929"/>
</svg>
