<svg width="692" height="218" viewBox="0 0 692 218" fill="none" xmlns="http://www.w3.org/2000/svg">
<mask id="mask0_399_1450" style="mask-type:luminance" maskUnits="userSpaceOnUse" x="0" y="0" width="692" height="218">
<path d="M692 0H0V217.015H692V0Z" fill="white"/>
</mask>
<g mask="url(#mask0_399_1450)">
<path d="M273.056 127.29C273.886 124.05 273.99 121.21 272.211 120.359C267.409 118.07 264.021 137.568 264.021 137.568L264.708 137.886C265.682 134.846 267.952 130.123 273.056 127.29Z" fill="#F7CBC4"/>
<path d="M277.152 138.448C273.414 140.239 267.738 140.135 264.188 139.839C264.062 140.431 264.021 140.779 264.021 140.779L274.576 146.633L279.854 141.688C279.854 141.688 297.945 139.077 301.525 134.458C301.65 134.295 301.765 134.136 301.872 133.977C292.033 136.962 277.152 138.452 277.152 138.452V138.448Z" fill="#D7A196"/>
<path d="M277.153 138.448C277.153 138.448 292.037 136.958 301.872 133.973C304.85 129.524 301.09 125.278 283.81 124.908C279.275 124.812 275.765 125.785 273.056 127.29C271.643 132.797 268.118 139.458 268.118 139.458L264.712 137.886C264.461 138.67 264.295 139.343 264.191 139.839C267.738 140.135 273.418 140.242 277.156 138.448H277.153Z" fill="#F7CBC4"/>
<path d="M273.055 127.29C267.951 130.123 265.681 134.846 264.707 137.886L268.113 139.458C268.113 139.458 271.638 132.797 273.051 127.29H273.055Z" fill="#F7CBC4"/>
<path d="M159.021 124.908C159.021 124.908 197.499 126.613 223.506 167.973C223.506 167.973 251.492 144.281 263.08 134.458L276.562 146.441C276.562 146.441 258.556 203.952 230.29 204.518C202.024 205.083 189.572 185.689 189.572 185.689L159.021 124.908Z" fill="#006EB9"/>
<path d="M114.233 73.925C114.233 73.925 111.624 101.183 115.61 114.778H126.508C126.508 114.778 125.253 112.145 126.508 109.582C126.508 109.582 128.143 112.892 129.523 114.778H180.656C180.656 114.778 180.907 108.358 180.656 104.326C180.656 104.326 182.73 110.873 182.446 114.778H188.321C188.321 114.778 189.461 88.6708 187.509 74.0878C185.557 59.5047 114.233 73.925 114.233 73.925Z" fill="#062C43"/>
<path d="M150.743 109.582C170.983 109.582 187.39 94.0681 187.39 74.9309C187.39 55.7938 170.983 40.28 150.743 40.28C130.503 40.28 114.096 55.7938 114.096 74.9309C114.096 94.0681 130.503 109.582 150.743 109.582Z" fill="#062C43"/>
<path d="M145.952 124.908H146.617C177.975 124.908 203.436 150.424 203.436 181.85V217.015H89.1328V181.85C89.1328 150.424 114.594 124.908 145.952 124.908Z" fill="#006EB9"/>
<path d="M139.092 134.457H160.039L158.552 120.359C149.909 120.714 143.114 121.798 140.391 122.293L139.095 134.461L139.092 134.457Z" fill="#F7CBC4"/>
<path d="M141.804 109.012L140.387 122.29C143.11 121.798 149.905 120.71 158.548 120.355L157.352 109.012H141.804Z" fill="#D7A196"/>
<path d="M150.648 117.644C168.145 117.644 182.328 102.417 182.328 83.6334C182.328 64.8496 168.145 49.6223 150.648 49.6223C133.152 49.6223 118.969 64.8496 118.969 83.6334C118.969 102.417 133.152 117.644 150.648 117.644Z" fill="#F7CBC4"/>
<path d="M178.718 98.4124C186.276 98.4124 192.402 92.2725 192.402 84.6985C192.402 77.1245 186.276 70.9846 178.718 70.9846C171.16 70.9846 165.033 77.1245 165.033 84.6985C165.033 92.2725 171.16 98.4124 178.718 98.4124Z" fill="#F7CBC4"/>
<path d="M122.577 98.4124C130.135 98.4124 136.262 92.2725 136.262 84.6985C136.262 77.1245 130.135 70.9846 122.577 70.9846C115.019 70.9846 108.893 77.1245 108.893 84.6985C108.893 92.2725 115.019 98.4124 122.577 98.4124Z" fill="#F7CBC4"/>
<path d="M130.475 209.244L121.249 155.262C120.843 152.898 122.43 150.653 124.788 150.247L122.743 150.598C120.385 151.005 118.798 153.25 119.204 155.613L128.43 209.596C128.836 211.959 131.076 213.549 133.435 213.143L135.479 212.791C133.121 213.198 130.881 211.608 130.475 209.244Z" fill="#39A7B2"/>
<path d="M156.58 144.791L124.784 150.249C122.426 150.654 120.841 152.898 121.245 155.262L130.472 209.246C130.876 211.609 133.116 213.197 135.475 212.792L167.271 207.334C169.629 206.93 171.214 204.685 170.81 202.322L161.582 148.337C161.178 145.974 158.939 144.386 156.58 144.791Z" fill="#61CBE4"/>
<path d="M139.487 126.876C139.487 126.876 107.195 119.775 75.5044 181.706C73.2273 186.159 71.9762 191.089 71.9983 196.093C72.0389 206.134 83.3209 218.687 110.594 213.971C143.602 208.261 157.206 193.038 157.206 193.038L150.744 173.702L108.926 176.946L116.495 155.787L139.487 126.876Z" fill="#006EB9"/>
<path d="M150.744 56.2092C150.744 56.2092 144.367 75.763 116.998 71.6577C116.998 71.6577 115.101 46.6228 150.744 43.5198V56.2129V56.2092Z" fill="#062C43"/>
<path d="M150.744 56.2092C150.744 56.2092 157.121 75.763 184.491 71.6577C184.491 71.6577 186.387 46.6228 150.744 43.5198V56.2129V56.2092Z" fill="#062C43"/>
<path d="M140.11 124.908L149.566 134.384L141.273 141.688C141.273 141.688 135.04 131.077 140.11 124.908Z" fill="#006EB9"/>
<path fill-rule="evenodd" clip-rule="evenodd" d="M140.074 124.165L150.295 134.407L141.149 142.464L140.842 141.942L141.273 141.688C140.842 141.942 140.842 141.942 140.842 141.942L140.841 141.941L140.84 141.939L140.836 141.932L140.821 141.907C140.809 141.885 140.791 141.853 140.768 141.812C140.722 141.73 140.655 141.609 140.573 141.455C140.409 141.146 140.181 140.699 139.924 140.144C139.411 139.036 138.779 137.489 138.307 135.742C137.372 132.28 137.027 127.871 139.724 124.591L140.074 124.165ZM141.411 140.9L148.836 134.36L140.16 125.666C138.147 128.51 138.404 132.265 139.273 135.481C139.725 137.158 140.335 138.65 140.832 139.724C141.057 140.21 141.259 140.61 141.411 140.9Z" fill="#062C43"/>
<path d="M159.022 124.908L149.566 134.384L157.859 141.688C157.859 141.688 164.092 131.077 159.022 124.908Z" fill="#006EB9"/>
<path fill-rule="evenodd" clip-rule="evenodd" d="M159.057 124.165L159.407 124.591C162.104 127.871 161.759 132.28 160.824 135.742C160.352 137.489 159.72 139.036 159.207 140.144C158.95 140.699 158.722 141.146 158.558 141.455C158.476 141.609 158.409 141.73 158.363 141.812C158.34 141.853 158.322 141.885 158.31 141.907L158.295 141.932L158.291 141.939L158.29 141.941C158.29 141.941 158.29 141.942 157.858 141.688L158.29 141.942L157.983 142.464L148.836 134.407L159.057 124.165ZM157.72 140.9C157.873 140.61 158.074 140.21 158.299 139.724C158.797 138.65 159.406 137.158 159.858 135.481C160.727 132.265 160.984 128.51 158.971 125.666L150.296 134.36L157.72 140.9Z" fill="#062C43"/>
<path d="M181.557 87.465C181.557 87.465 183.081 80.8189 182.439 74.9309C182.439 74.9309 188.956 77.4015 189.573 84.1105C189.573 84.1105 185.875 71.3989 181.557 87.465Z" fill="#D7A196"/>
<path d="M119.924 87.465C119.924 87.465 118.4 80.8189 119.042 74.9309C119.042 74.9309 112.525 77.4015 111.908 84.1105C111.908 84.1105 115.606 71.3989 119.924 87.465Z" fill="#D7A196"/>
<path d="M166.063 84.6948C167.57 84.6948 168.791 82.8436 168.791 80.5599C168.791 78.2763 167.57 76.425 166.063 76.425C164.557 76.425 163.336 78.2763 163.336 80.5599C163.336 82.8436 164.557 84.6948 166.063 84.6948Z" fill="#062C43"/>
<path d="M135.764 84.6948C137.271 84.6948 138.492 82.8436 138.492 80.5599C138.492 78.2763 137.271 76.425 135.764 76.425C134.258 76.425 133.037 78.2763 133.037 80.5599C133.037 82.8436 134.258 84.6948 135.764 84.6948Z" fill="#062C43"/>
<path fill-rule="evenodd" clip-rule="evenodd" d="M107.049 177.131C107.087 176.826 107.139 176.422 107.203 175.94C107.351 174.822 107.567 173.292 107.832 171.646C108.369 168.326 109.099 164.614 109.887 162.794L108.969 162.397C108.122 164.353 107.377 168.195 106.845 171.486C106.577 173.144 106.361 174.684 106.212 175.808C106.137 176.371 106.079 176.83 106.039 177.148C106.02 177.307 106.005 177.432 105.995 177.516L105.983 177.613L105.979 177.645C105.979 177.645 105.979 177.646 106.476 177.704L105.979 177.645L105.906 178.276L106.536 178.2C116.954 176.942 128.014 175.943 136.471 175.259C140.699 174.917 144.276 174.653 146.795 174.475C148.055 174.386 149.05 174.319 149.73 174.273C150.002 174.255 150.224 174.241 150.392 174.23L156.63 192.894C143.356 205.157 126.569 210.211 113.038 212.191C106.236 213.185 100.268 213.401 96.0015 213.369C93.8687 213.352 92.162 213.274 90.9902 213.199C90.4042 213.162 89.9521 213.126 89.6472 213.1C89.4948 213.086 89.3792 213.075 89.3022 213.068L89.2157 213.059L89.1946 213.057L89.1885 213.056C89.1885 213.056 89.1884 213.056 89.1339 213.553C89.0794 214.05 89.0802 214.05 89.0802 214.05L89.0882 214.051L89.112 214.054L89.2038 214.063C89.2845 214.071 89.4038 214.082 89.56 214.096C89.8725 214.123 90.3326 214.16 90.9269 214.197C92.1154 214.273 93.8407 214.352 95.9938 214.369C100.299 214.402 106.32 214.184 113.182 213.18C126.9 211.174 144.031 206.021 157.547 193.407L157.782 193.188L151.096 173.183L150.712 173.207L150.744 173.706C150.712 173.207 150.712 173.207 150.712 173.207L150.444 173.224C150.267 173.236 150.005 173.253 149.664 173.275C148.982 173.321 147.986 173.388 146.725 173.478C144.202 173.656 140.622 173.919 136.39 174.262C128.098 174.933 117.299 175.907 107.049 177.131Z" fill="#062C43"/>
<path fill-rule="evenodd" clip-rule="evenodd" d="M150.553 85.7828V83.2192H151.553V86.6494L151.104 86.6939C151.104 86.6939 151.104 86.6939 151.104 86.6939L151.103 86.6941L151.09 86.6957C151.077 86.6973 151.056 86.7002 151.028 86.7048C150.973 86.7139 150.89 86.7294 150.79 86.7545C150.587 86.8051 150.323 86.8916 150.064 87.0344C149.559 87.3125 149.092 87.7844 149.092 88.6634C149.092 89.5234 149.636 90.1064 150.283 90.5039C150.603 90.6998 150.926 90.8359 151.172 90.9231C151.294 90.9664 151.395 90.9969 151.464 91.0163C151.499 91.0259 151.525 91.0327 151.542 91.0369L151.559 91.0413L151.562 91.042C151.562 91.0419 151.562 91.0419 151.452 91.5297C151.342 92.0175 151.342 92.0174 151.342 92.0174L151.34 92.017L151.337 92.0164L151.328 92.0142L151.298 92.0069C151.273 92.0006 151.238 91.9914 151.194 91.9791C151.107 91.9546 150.984 91.9174 150.838 91.8657C150.548 91.7627 150.156 91.5991 149.76 91.3562C148.978 90.8763 148.092 90.0262 148.092 88.6634C148.092 87.3196 148.856 86.558 149.581 86.1584C149.938 85.9623 150.289 85.8489 150.548 85.7843C150.55 85.7838 150.551 85.7833 150.553 85.7828Z" fill="#AF756B"/>
<path fill-rule="evenodd" clip-rule="evenodd" d="M150.244 55.6336C150.244 55.6331 150.244 55.6327 150.743 55.6027C151.242 55.5726 151.242 55.5724 151.242 55.5723L151.242 55.5725L151.242 55.5747L151.243 55.5859C151.244 55.5963 151.245 55.6127 151.247 55.6348C151.25 55.6789 151.256 55.7459 151.265 55.8338C151.284 56.0097 151.315 56.2693 151.365 56.5979C151.467 57.2556 151.647 58.1881 151.961 59.279C152.59 61.4639 153.751 64.2653 155.877 66.7683C157.997 69.2645 161.086 71.4766 165.603 72.4838C170.127 73.4927 176.116 73.2994 184.036 70.9236L184.323 71.8814C176.289 74.2914 170.121 74.516 165.385 73.4598C160.641 72.4019 157.365 70.0658 155.115 67.4156C152.87 64.7721 151.655 61.8289 151 59.5557C150.672 58.4176 150.484 57.4428 150.377 56.7503C150.324 56.404 150.291 56.1278 150.271 55.9367C150.261 55.8411 150.254 55.7668 150.25 55.7155C150.248 55.6899 150.247 55.67 150.246 55.6561L150.245 55.6398L150.244 55.6351L150.244 55.6336Z" fill="#062C43"/>
<path d="M170.307 185.689C171.089 183.707 171.495 181.536 171.495 179.501C171.495 173.417 168.509 169.297 161.874 169.297C155.238 169.297 149.857 174.227 149.857 180.311C149.857 183.237 150.965 186.244 152.85 188.577C157.907 189.41 164.372 189.302 170.307 185.689Z" fill="#F7CBC4"/>
<path d="M152.851 188.578C154.889 191.1 157.834 192.842 161.277 192.842C165.691 192.842 168.75 189.632 170.304 185.693C164.37 189.306 157.904 189.414 152.848 188.581L152.851 188.578Z" fill="#D7A196"/>
<path d="M139.656 99.818C141.347 103.516 145.794 106.904 151.019 106.904C156.245 106.904 160.703 103.509 162.386 99.8069C150.735 101.664 143.033 100.569 139.656 99.818Z" fill="#D14A6A"/>
<path fill-rule="evenodd" clip-rule="evenodd" d="M138.785 99.1118L139.766 99.3299C143.085 100.068 150.724 101.159 162.309 99.3131L163.228 99.1667L162.843 100.014C161.083 103.885 156.453 107.404 151.021 107.404C145.588 107.404 140.97 103.892 139.203 100.026L138.785 99.1118ZM140.59 100.52C142.472 103.682 146.436 106.404 151.021 106.404C155.634 106.404 159.628 103.641 161.491 100.451C151.361 101.952 144.307 101.222 140.59 100.52Z" fill="#D7A196"/>
<path d="M162.39 99.8069C162.856 98.7824 163.11 97.7321 163.11 96.7261H138.93C138.93 97.7358 139.188 98.7898 139.657 99.818C143.034 100.569 150.736 101.664 162.387 99.8069H162.39Z" fill="#FFF3F6"/>
<path fill-rule="evenodd" clip-rule="evenodd" d="M138.43 96.2261H163.61V96.7261C163.61 97.8155 163.335 98.9362 162.846 100.014L162.713 100.307H162.426C150.731 102.165 142.979 101.069 139.548 100.306L139.305 100.252L139.202 100.025C138.709 98.9447 138.43 97.82 138.43 96.7261V96.2261ZM139.452 97.2261C139.514 97.9287 139.705 98.6569 140.012 99.3837C143.427 100.113 150.883 101.099 162.042 99.3551C162.341 98.6382 162.527 97.9197 162.588 97.2261H139.452Z" fill="#D7A196"/>
<path fill-rule="evenodd" clip-rule="evenodd" d="M203.932 197.931C203.932 197.931 203.932 197.931 203.433 197.957L202.934 197.982L202.933 197.98L202.933 197.971L202.931 197.933C202.929 197.9 202.926 197.849 202.922 197.783C202.913 197.649 202.9 197.449 202.881 197.188C202.842 196.665 202.778 195.893 202.678 194.902C202.479 192.921 202.136 190.067 201.565 186.577C200.422 179.596 198.364 170.082 194.703 159.944L195.644 159.604C199.331 169.815 201.402 179.392 202.552 186.415C203.127 189.928 203.472 192.803 203.673 194.802C203.774 195.802 203.838 196.582 203.878 197.114C203.898 197.379 203.911 197.583 203.92 197.72C203.924 197.789 203.927 197.841 203.929 197.877L203.931 197.917L203.932 197.931Z" fill="#062C43"/>
<path d="M556.961 74.931L557.858 139.454L625.476 140.778V68.3145L556.961 74.931Z" fill="#F6C750"/>
<path d="M652.473 217.015H538.169V182.556C538.169 151.13 563.63 125.615 594.989 125.615H595.653C627.012 125.615 652.473 151.13 652.473 182.556V217.015Z" fill="#00B734"/>
<path d="M582.891 122.585L582.434 127.105C584.367 130.145 587.759 131.976 591.623 131.976C595.996 131.976 599.794 129.646 601.525 125.918L601.37 124.449C591.741 124.731 584.7 123.066 582.895 122.589L582.891 122.585Z" fill="#FFE6E3"/>
<path d="M601.214 123L600.306 114.486L599.797 109.722H584.249L583.858 113.421L583.049 121.066L582.891 122.586C584.695 123.063 591.737 124.731 601.365 124.446L601.211 122.996L601.214 123Z" fill="#E2C1BF"/>
<path d="M591.653 117.386C611.893 117.386 628.3 100.943 628.3 80.6598C628.3 60.3768 611.893 43.9341 591.653 43.9341C571.413 43.9341 555.006 60.3768 555.006 80.6598C555.006 100.943 571.413 117.386 591.653 117.386Z" fill="#F6C750"/>
<path d="M591.748 122.253C609.244 122.253 623.428 107.741 623.428 89.8394C623.428 71.938 609.244 57.426 591.748 57.426C574.252 57.426 560.068 71.938 560.068 89.8394C560.068 107.741 574.252 122.253 591.748 122.253Z" fill="#FFE6E3"/>
<path d="M563.679 106.216C571.236 106.216 577.363 100.076 577.363 92.5022C577.363 84.9283 571.236 78.7883 563.679 78.7883C556.121 78.7883 549.994 84.9283 549.994 92.5022C549.994 100.076 556.121 106.216 563.679 106.216Z" fill="#FFE6E3"/>
<path d="M582.482 127.001C582.482 127.001 531.6 128.821 520.857 207.18L518.879 217.015H542.299L582.482 127.001Z" fill="#00B734"/>
<path d="M619.819 106.216C627.377 106.216 633.504 100.076 633.504 92.5022C633.504 84.9283 627.377 78.7883 619.819 78.7883C612.262 78.7883 606.135 84.9283 606.135 92.5022C606.135 100.076 612.262 106.216 619.819 106.216Z" fill="#FFE6E3"/>
<path d="M602.119 127.586C602.119 127.586 634.411 120.485 666.102 182.416C668.379 186.869 669.63 191.799 669.608 196.803C669.567 206.844 658.628 217.899 631.348 213.912C596.546 208.83 584.4 193.744 584.4 193.744L590.863 174.409L632.68 177.652L625.111 156.493L602.119 127.582V127.586Z" fill="#00B734"/>
<path d="M560.836 95.2687C560.836 95.2687 559.312 88.6226 559.954 82.7346C559.954 82.7346 553.437 85.2052 552.82 91.9142C552.82 91.9142 556.518 79.2026 560.836 95.2687Z" fill="#E2C1BF"/>
<path d="M622.473 95.2687C622.473 95.2687 623.997 88.6226 623.355 82.7346C623.355 82.7346 629.872 85.2052 630.489 91.9142C630.489 91.9142 626.791 79.2026 622.473 95.2687Z" fill="#E2C1BF"/>
<path fill-rule="evenodd" clip-rule="evenodd" d="M635.627 178.352C635.627 178.353 635.627 178.353 635.131 178.41L635.627 178.352L635.7 178.983L635.071 178.907C624.652 177.649 613.592 176.65 605.135 175.965C600.907 175.623 597.331 175.36 594.811 175.182C593.552 175.093 592.556 175.025 591.876 174.98C591.604 174.962 591.383 174.947 591.215 174.936L584.977 193.601C598.25 205.863 615.036 210.895 628.568 212.851C635.37 213.834 641.338 214.039 645.604 213.997C647.737 213.977 649.443 213.894 650.615 213.818C651.201 213.779 651.653 213.742 651.958 213.715C652.11 213.701 652.226 213.69 652.303 213.682L652.389 213.673L652.411 213.671L652.416 213.67L652.417 213.67C652.417 213.67 652.417 213.67 652.472 214.167C652.528 214.664 652.528 214.664 652.527 214.664L652.526 214.664L652.519 214.665L652.495 214.668L652.404 214.677C652.323 214.685 652.204 214.697 652.047 214.711C651.735 214.739 651.275 214.777 650.68 214.815C649.492 214.893 647.767 214.976 645.614 214.997C641.308 215.039 635.288 214.833 628.425 213.84C614.707 211.857 597.576 206.728 584.059 194.113L583.824 193.894L590.51 173.889L590.894 173.913L590.862 174.412C590.894 173.913 590.894 173.913 590.894 173.913L591.163 173.931C591.34 173.942 591.602 173.959 591.942 173.982C592.624 174.027 593.621 174.095 594.882 174.184C597.404 174.362 600.984 174.626 605.216 174.969C613.508 175.64 624.307 176.613 634.557 177.838C634.519 177.533 634.468 177.128 634.404 176.647C634.255 175.528 634.04 173.999 633.774 172.352C633.238 169.033 632.507 165.321 631.719 163.501L632.637 163.104C633.484 165.06 634.23 168.902 634.761 172.193C635.029 173.851 635.245 175.39 635.395 176.515C635.47 177.077 635.528 177.536 635.567 177.855C635.587 178.014 635.602 178.138 635.612 178.223L635.623 178.319L635.627 178.35L635.627 178.352Z" fill="#062C43"/>
<path fill-rule="evenodd" clip-rule="evenodd" d="M590.839 91.0229H591.839V93.5865C591.841 93.587 591.843 93.5875 591.844 93.588C592.103 93.6526 592.455 93.766 592.811 93.9621C593.536 94.3617 594.3 95.1233 594.3 96.4671C594.3 97.8299 593.414 98.68 592.632 99.16C592.236 99.4028 591.844 99.5665 591.554 99.6694C591.408 99.7211 591.286 99.7583 591.198 99.7828C591.154 99.7951 591.119 99.8043 591.094 99.8106L591.064 99.8179L591.055 99.8201L591.052 99.8208L591.051 99.821C591.051 99.821 591.05 99.8212 590.94 99.3334C590.83 98.8456 590.83 98.8456 590.83 98.8457L590.833 98.845L590.851 98.8407C590.867 98.8364 590.894 98.8296 590.928 98.82C590.997 98.8007 591.098 98.7702 591.22 98.7268C591.466 98.6396 591.789 98.5035 592.109 98.3076C592.757 97.9101 593.3 97.3271 593.3 96.4671C593.3 95.5881 592.833 95.1162 592.328 94.8381C592.069 94.6954 591.805 94.6088 591.602 94.5582C591.502 94.5332 591.419 94.5176 591.364 94.5085C591.336 94.5039 591.315 94.501 591.302 94.4994L591.289 94.4978C591.289 94.4977 591.288 94.4977 591.288 94.4976L590.839 94.4531V91.0229Z" fill="#062C43"/>
<path d="M566.122 186.399C565.14 184.417 564.635 182.246 564.635 180.211C564.635 174.127 568.377 170.007 576.692 170.007C585.007 170.007 591.749 174.937 591.749 181.021C591.749 183.947 590.362 186.954 587.996 189.287C581.663 190.12 573.559 190.012 566.122 186.399Z" fill="#F7CBC4"/>
<path d="M587.997 189.288C585.443 191.81 581.752 193.552 577.434 193.552C571.902 193.552 568.071 190.342 566.119 186.403C573.556 190.016 581.66 190.123 587.993 189.291L587.997 189.288Z" fill="#D7A196"/>
<path d="M602.111 104.94C602.465 104.43 602.772 103.901 603.015 103.368C599.638 104.119 591.936 105.214 580.285 103.357C580.518 103.871 580.813 104.378 581.149 104.874C591.394 106.401 598.472 105.639 602.111 104.94Z" fill="white"/>
<path fill-rule="evenodd" clip-rule="evenodd" d="M603.888 102.662L603.47 103.576C603.213 104.139 602.891 104.693 602.522 105.225L602.406 105.393L602.206 105.431C598.514 106.14 591.379 106.904 581.075 105.368L580.858 105.336L580.735 105.154C580.387 104.641 580.077 104.109 579.83 103.563L579.447 102.717L580.364 102.864C591.95 104.71 599.588 103.618 602.907 102.88L603.888 102.662ZM581.187 104.002C581.268 104.139 581.353 104.275 581.442 104.412C591.323 105.859 598.197 105.16 601.815 104.487C601.907 104.349 601.995 104.21 602.079 104.071C598.362 104.773 591.311 105.502 581.187 104.002Z" fill="#D7A196"/>
<path d="M591.652 110.455C596.121 110.455 600.018 107.973 602.111 104.94C598.468 105.643 591.393 106.405 581.148 104.874C583.23 107.936 587.149 110.455 591.652 110.455Z" fill="#D14A6A"/>
<path fill-rule="evenodd" clip-rule="evenodd" d="M580.094 104.21L581.223 104.379C591.41 105.902 598.427 105.142 602.017 104.449L603.218 104.218L602.523 105.224C600.348 108.377 596.304 110.955 591.652 110.955C586.966 110.955 582.899 108.338 580.736 105.155L580.094 104.21ZM582.284 105.54C584.397 108.036 587.808 109.955 591.652 109.955C595.437 109.955 598.804 108.096 600.924 105.656C597.147 106.252 590.879 106.704 582.284 105.54Z" fill="#D7A196"/>
<path fill-rule="evenodd" clip-rule="evenodd" d="M544.329 217.033C544.329 217.033 544.329 217.033 543.83 217.015C543.33 216.997 543.33 216.997 543.33 216.996L543.332 216.939L543.339 216.771C543.345 216.623 543.354 216.403 543.367 216.116C543.393 215.541 543.434 214.696 543.494 213.613C543.613 211.448 543.808 208.331 544.11 204.526C544.715 196.916 545.749 186.547 547.465 175.515L548.454 175.669C546.742 186.669 545.711 197.011 545.107 204.605C544.806 208.401 544.611 211.51 544.492 213.668C544.433 214.748 544.392 215.589 544.366 216.161C544.353 216.447 544.344 216.665 544.338 216.812L544.331 216.978L544.329 217.033Z" fill="#062C43"/>
<path d="M624.734 79.7018L605.532 80.0273C605.532 80.0273 603.207 72.2198 602.893 69.8269L601.258 80.0273H585.492L583.418 60.8877C583.418 60.8877 580.152 72.6045 579.776 80.0273H574.768L574.185 74.4204L572.55 80.0273H556.824C556.824 80.0273 559.629 51.697 590.777 52.0743C621.925 52.4515 624.73 79.7018 624.73 79.7018H624.734Z" fill="#F6C750"/>
<path fill-rule="evenodd" clip-rule="evenodd" d="M583.912 89.1462C583.912 89.1467 583.913 89.1473 582.821 90.1759C581.729 91.2045 581.73 91.205 581.73 91.2055L581.731 91.2061C581.726 91.2015 581.717 91.1917 581.702 91.1774C581.673 91.1488 581.625 91.1019 581.558 91.0403C581.423 90.9169 581.215 90.7356 580.939 90.5245C580.385 90.1005 579.571 89.5668 578.545 89.135C576.524 88.2843 573.653 87.8102 570.178 89.4245L568.914 86.7037C573.289 84.6713 577.055 85.253 579.709 86.3699C581.021 86.9219 582.054 87.6 582.762 88.1417C583.117 88.4135 583.394 88.6536 583.587 88.8309C583.684 88.9196 583.76 88.9929 583.814 89.0468C583.841 89.0738 583.863 89.096 583.88 89.1129L583.9 89.1342L583.908 89.1418L583.91 89.1448L583.912 89.1462ZM581.731 91.2061C581.732 91.208 581.733 91.209 581.734 91.2093L581.732 91.2079L581.731 91.2064L581.731 91.2061Z" fill="#062C43"/>
<path fill-rule="evenodd" clip-rule="evenodd" d="M601 91.2758C601 91.2753 601.001 91.2748 599.909 90.2462C598.817 89.2176 598.818 89.2171 598.818 89.2165L598.82 89.2151L598.822 89.2121L598.83 89.2045L598.85 89.1832C598.867 89.1663 598.889 89.1441 598.916 89.1171C598.97 89.0632 599.046 88.9899 599.143 88.9012C599.336 88.7239 599.613 88.4838 599.968 88.212C600.676 87.6703 601.709 86.9922 603.021 86.4403C605.675 85.3234 609.441 84.7416 613.816 86.774L612.552 89.4948C609.077 87.8805 606.206 88.3547 604.185 89.2053C603.159 89.6371 602.345 90.1708 601.791 90.5948C601.515 90.806 601.307 90.9872 601.172 91.1106C601.105 91.1722 601.057 91.2191 601.028 91.2477C601.013 91.2621 601.004 91.2718 600.999 91.2764L601 91.2758ZM600.999 91.2764L600.999 91.2768L600.998 91.2782L600.996 91.2796C600.996 91.2798 600.997 91.2788 600.999 91.2764Z" fill="#062C43"/>
<path fill-rule="evenodd" clip-rule="evenodd" d="M606.176 72.2065L608.313 80.5355L607.344 80.784L605.207 72.4551L606.176 72.2065Z" fill="#FFE6E3"/>
<path d="M578.459 155.572C578.459 155.572 567.273 136.876 539.191 141.03L535.549 150.509L578.189 166.527L620.793 152.173L615.641 144.591C615.641 144.591 590.021 143.297 578.459 155.572Z" fill="white"/>
<path d="M535.8 165.773C535.8 165.773 564.608 164.071 578.189 174.838C578.189 174.838 598.93 165.396 616.457 165.396L623.941 150.099C623.941 150.099 590.209 147.931 579.212 164.597C579.212 164.597 562.372 146.323 532.973 150.853L535.8 165.773Z" fill="#062C43"/>
<path fill-rule="evenodd" clip-rule="evenodd" d="M539.562 141.472C539.733 141.441 539.982 141.398 540.301 141.35C540.954 141.249 541.897 141.125 543.051 141.027C545.361 140.83 548.508 140.742 551.865 141.171L551.992 140.179C548.544 139.739 545.323 139.83 542.966 140.03C541.787 140.13 540.822 140.258 540.15 140.361C539.814 140.413 539.551 140.458 539.371 140.491C539.281 140.507 539.212 140.52 539.165 140.529L539.111 140.54L539.097 140.543L539.093 140.544L539.092 140.544C539.092 140.544 539.091 140.544 539.193 141.034L539.092 140.544C538.924 140.579 538.785 140.697 538.725 140.857L535.082 150.529L536.018 150.881L539.562 141.472Z" fill="black"/>
<path fill-rule="evenodd" clip-rule="evenodd" d="M604.655 127.097C604.28 127.743 600.467 134.071 592.757 134.833L592.757 134.833C588.429 135.26 584.955 133.727 582.548 132.062C580.144 130.399 578.779 128.59 578.645 128.405L579.453 127.817C579.548 127.947 580.836 129.662 583.116 131.239C585.393 132.814 588.634 134.235 592.658 133.838C599.85 133.128 603.44 127.199 603.789 126.596L604.655 127.097Z" fill="black"/>
<path fill-rule="evenodd" clip-rule="evenodd" d="M577.105 81.1599C572.39 81.1599 568.566 84.9902 568.566 89.7174C568.566 94.4447 572.39 98.275 577.105 98.275C581.819 98.275 585.643 94.4447 585.643 89.7174C585.643 84.9902 581.819 81.1599 577.105 81.1599ZM567.566 89.7174C567.566 84.44 571.836 80.1599 577.105 80.1599C582.373 80.1599 586.643 84.44 586.643 89.7174C586.643 94.9949 582.373 99.275 577.105 99.275C571.836 99.275 567.566 94.9949 567.566 89.7174Z" fill="#899093"/>
<path fill-rule="evenodd" clip-rule="evenodd" d="M605.333 81.1599C600.619 81.1599 596.795 84.9902 596.795 89.7174C596.795 94.4447 600.619 98.275 605.333 98.275C610.048 98.275 613.871 94.4447 613.871 89.7174C613.871 84.9902 610.048 81.1599 605.333 81.1599ZM595.795 89.7174C595.795 84.44 600.064 80.1599 605.333 80.1599C610.602 80.1599 614.871 84.44 614.871 89.7174C614.871 94.9949 610.602 99.275 605.333 99.275C600.064 99.275 595.795 94.9949 595.795 89.7174Z" fill="#899093"/>
<path fill-rule="evenodd" clip-rule="evenodd" d="M595.902 88.6799C595.267 87.9649 593.732 86.2387 591.311 86.2417H591.311C588.258 86.2451 586.532 88.6584 586.387 88.871L585.561 88.3081C585.733 88.0546 587.72 85.2457 591.31 85.2417M595.902 88.6799C595.987 88.7754 596.056 88.8528 596.108 88.9057L595.902 88.6799ZM596.108 88.9057L596.816 88.1994L596.108 88.9057ZM596.816 88.1994C596.787 88.1698 596.741 88.1171 596.68 88.046L596.816 88.1994ZM596.68 88.046C596.12 87.3996 594.25 85.2381 591.31 85.2417L596.68 88.046Z" fill="#899093"/>
<path d="M540.28 28.2488C533.485 26.5475 530.695 36.2338 529.559 45.0177C529.573 45.0435 529.588 45.0657 529.603 45.0879C531.47 48.239 533.057 52.3517 533.954 54.8741C538.028 55.8135 542.697 56.0021 546.299 53.6351C550.812 42.9872 549.746 30.6158 540.28 28.2451V28.2488Z" fill="#EFB1AB"/>
<path d="M529.559 45.0214C527.865 42.181 525.942 40.1432 524.104 40.8052C521.252 41.8297 523.728 47.5142 526.385 52.2149C527.057 52.5293 527.902 52.9029 528.873 53.2875C528.969 50.976 529.164 48.0542 529.559 45.0214Z" fill="#EFB1AB"/>
<path d="M533.951 54.8776C533.058 52.3516 531.471 48.2426 529.6 45.0915C529.585 45.0656 529.57 45.0434 529.556 45.0212C529.164 48.054 528.965 50.9758 528.869 53.2873C530.331 53.8606 532.076 54.4486 533.947 54.8813L533.951 54.8776Z" fill="#EFB1AB"/>
<path d="M533.95 54.8778C532.079 54.4451 530.33 53.857 528.872 53.2837C527.902 52.9028 527.053 52.5292 526.385 52.2112C527.223 53.6943 528.079 55.0775 528.791 56.1907C528.773 57.3816 528.787 58.088 528.787 58.088C528.787 58.088 531.991 73.0076 541.379 61.7754C543.402 59.3566 545.059 56.5643 546.299 53.6425C542.697 56.0058 538.028 55.8172 533.954 54.8815L533.95 54.8778Z" fill="#BC8784"/>
<path d="M445.769 142.25H446.433C477.792 142.25 503.253 167.766 503.253 199.192V217.813H388.949V199.192C388.949 167.766 414.41 142.25 445.769 142.25Z" fill="#B77500"/>
<path d="M454.283 142.794L480.217 147.428L523.964 56.3977L545.019 63.2953C545.019 63.2953 522.127 138.995 503.257 217.81L470.821 210.505L454.283 142.79V142.794Z" fill="#B77500"/>
<path d="M456.032 198.685C452.629 198.644 448.725 196.336 446.385 194.709C446.034 195.131 445.85 195.393 445.85 195.393L450.588 204.188L456.467 202.324C456.467 202.324 470.229 207.343 474.784 205.068C474.942 204.991 475.094 204.906 475.241 204.821C467.059 203.334 456.032 198.689 456.032 198.689V198.685Z" fill="#BC8784"/>
<path d="M466.705 190.53C463.59 188.673 460.711 188.07 458.154 188.207C460.176 185.955 461.516 183.736 460.656 182.364C458.335 178.662 447.282 192.838 447.282 192.838L447.617 193.359C447.093 193.884 446.68 194.354 446.385 194.709C448.725 196.337 452.629 198.644 456.032 198.685C456.032 198.685 467.059 203.334 475.241 204.817C479.301 202.446 478.574 197.594 466.705 190.526V190.53Z" fill="#EFB1AB"/>
<path d="M436.491 143.245C436.491 143.245 404.852 136.251 373.807 197.224C371.574 201.607 370.353 206.463 370.371 211.389C370.412 221.275 381.469 233.635 408.188 228.994C440.529 223.376 454.28 208.393 454.28 208.393L448.072 189.306L406.55 192.538L413.964 171.708L436.487 143.249L436.491 143.245Z" fill="#B77500"/>
<path fill-rule="evenodd" clip-rule="evenodd" d="M404.123 192.483C404.161 192.179 404.213 191.774 404.277 191.292C404.426 190.174 404.641 188.644 404.907 186.998C405.443 183.678 406.173 179.966 406.961 178.146L406.044 177.749C405.197 179.705 404.451 183.548 403.919 186.838C403.652 188.497 403.435 190.036 403.286 191.16C403.211 191.723 403.153 192.182 403.114 192.5C403.094 192.66 403.079 192.784 403.069 192.868L403.057 192.965L403.053 192.998C403.053 192.998 403.053 192.998 403.55 193.056L403.053 192.998L402.98 193.628L403.61 193.552C414.028 192.294 425.088 191.295 433.545 190.611C437.773 190.269 441.35 190.005 443.869 189.827C445.129 189.738 446.124 189.671 446.805 189.625C447.076 189.607 447.298 189.593 447.466 189.582L453.704 208.246C440.43 220.509 423.644 225.563 410.112 227.543C403.31 228.537 397.342 228.753 393.076 228.721C390.943 228.704 389.236 228.626 388.064 228.552C387.478 228.514 387.026 228.478 386.721 228.452C386.569 228.438 386.453 228.427 386.376 228.42L386.29 228.411L386.269 228.409L386.263 228.408C386.263 228.408 386.263 228.408 386.208 228.905C386.154 229.402 386.154 229.402 386.154 229.402L386.162 229.403L386.186 229.406L386.278 229.415C386.359 229.423 386.478 229.434 386.634 229.448C386.947 229.475 387.407 229.512 388.001 229.55C389.19 229.625 390.915 229.704 393.068 229.721C397.374 229.754 403.394 229.536 410.257 228.532C423.974 226.526 441.105 221.373 454.621 208.759L454.856 208.54L448.17 188.535L447.787 188.559L447.818 189.058C447.787 188.559 447.787 188.559 447.787 188.559L447.518 188.576C447.341 188.588 447.079 188.605 446.738 188.627C446.057 188.673 445.06 188.741 443.799 188.83C441.277 189.008 437.697 189.272 433.464 189.614C425.172 190.285 414.373 191.259 404.123 192.483Z" fill="#062C43"/>
<path d="M436.122 137.135L436.1 137.354C436.387 137.224 436.694 137.098 437.015 136.98C436.683 137.035 436.384 137.091 436.122 137.135Z" fill="#EFB1AB"/>
<path d="M454.518 137.465L454.278 135.201C451.425 135.32 448.776 135.516 446.406 135.745C449.687 135.874 452.569 136.518 454.518 137.465Z" fill="#EFB1AB"/>
<path d="M446.407 135.745C442.285 136.144 439.011 136.636 437.014 136.976C436.69 137.095 436.387 137.221 436.099 137.35L435.49 143.042C437.657 144.211 441.192 144.973 445.189 144.973C449.186 144.973 452.954 144.159 455.098 142.924L454.522 137.461C452.574 136.514 449.691 135.871 446.411 135.741L446.407 135.745Z" fill="#EFB1AB"/>
<path d="M453.083 123.858H437.534L436.117 137.135C436.379 137.087 436.678 137.036 437.01 136.98C439.011 136.64 442.284 136.144 446.403 135.748C448.772 135.519 451.422 135.323 454.275 135.205L453.079 123.862L453.083 123.858Z" fill="#BC8784"/>
<path d="M445.391 123.255C465.631 123.255 482.038 107.741 482.038 88.604C482.038 69.4669 465.631 53.9531 445.391 53.9531C425.152 53.9531 408.744 69.4669 408.744 88.604C408.744 107.741 425.152 123.255 445.391 123.255Z" fill="#563718"/>
<path d="M444.672 131.318C462.168 131.318 476.351 116.09 476.351 97.3065C476.351 78.5227 462.168 63.2954 444.672 63.2954C427.176 63.2954 412.992 78.5227 412.992 97.3065C412.992 116.09 427.176 131.318 444.672 131.318Z" fill="#EFB1AB"/>
<path d="M473.366 112.086C480.924 112.086 487.051 105.946 487.051 98.3716C487.051 90.7976 480.924 84.6577 473.366 84.6577C465.808 84.6577 459.682 90.7976 459.682 98.3716C459.682 105.946 465.808 112.086 473.366 112.086Z" fill="#EFB1AB"/>
<path d="M417.226 112.086C424.783 112.086 430.91 105.946 430.91 98.3716C430.91 90.7976 424.783 84.6577 417.226 84.6577C409.668 84.6577 403.541 90.7976 403.541 98.3716C403.541 105.946 409.668 112.086 417.226 112.086Z" fill="#EFB1AB"/>
<path d="M476.207 101.138C476.207 101.138 477.731 94.492 477.089 88.604C477.089 88.604 483.607 91.0746 484.223 97.7836C484.223 97.7836 480.525 85.072 476.207 101.138Z" fill="#BC8784"/>
<path d="M414.573 101.138C414.573 101.138 413.048 94.492 413.69 88.604C413.69 88.604 407.173 91.0746 406.557 97.7836C406.557 97.7836 410.255 85.072 414.573 101.138Z" fill="#BC8784"/>
<path d="M460.712 98.3716C462.218 98.3716 463.439 96.5203 463.439 94.2367C463.439 91.9531 462.218 90.1018 460.712 90.1018C459.205 90.1018 457.984 91.9531 457.984 94.2367C457.984 96.5203 459.205 98.3716 460.712 98.3716Z" fill="#062C43"/>
<path d="M430.413 98.3716C431.919 98.3716 433.14 96.5203 433.14 94.2367C433.14 91.9531 431.919 90.1018 430.413 90.1018C428.907 90.1018 427.686 91.9531 427.686 94.2367C427.686 96.5203 428.907 98.3716 430.413 98.3716Z" fill="#062C43"/>
<path fill-rule="evenodd" clip-rule="evenodd" d="M445.206 99.4559V96.8923H446.206V100.322L445.757 100.367C445.757 100.367 445.757 100.367 445.757 100.367C445.756 100.367 445.756 100.367 445.755 100.367L445.742 100.369C445.729 100.37 445.708 100.373 445.681 100.378C445.625 100.387 445.542 100.403 445.442 100.428C445.24 100.478 444.975 100.565 444.716 100.707C444.211 100.986 443.744 101.458 443.744 102.336C443.744 103.196 444.288 103.78 444.936 104.177C445.255 104.373 445.578 104.509 445.824 104.596C445.947 104.64 446.048 104.67 446.116 104.689C446.151 104.699 446.177 104.706 446.194 104.71L446.212 104.714L446.214 104.715C446.214 104.715 446.214 104.715 446.104 105.203C445.995 105.691 445.994 105.691 445.994 105.69L445.993 105.69L445.99 105.689L445.981 105.687L445.951 105.68C445.925 105.674 445.89 105.664 445.846 105.652C445.759 105.628 445.636 105.591 445.49 105.539C445.2 105.436 444.808 105.272 444.413 105.029C443.63 104.549 442.744 103.699 442.744 102.336C442.744 100.993 443.508 100.231 444.234 99.8315C444.59 99.6354 444.941 99.522 445.2 99.4574C445.202 99.4569 445.204 99.4564 445.206 99.4559Z" fill="#062C43"/>
<path fill-rule="evenodd" clip-rule="evenodd" d="M439.349 110.798C437.341 110.018 435.665 108.867 434.666 107.421L435.489 106.853C436.338 108.081 437.82 109.131 439.711 109.866C441.596 110.599 443.852 111.004 446.201 110.972L446.201 110.972C450.494 110.913 454.312 109.404 456.099 107.213L456.874 107.845C454.829 110.351 450.669 111.911 446.215 111.971M439.349 110.798C441.363 111.581 443.748 112.006 446.215 111.971L439.349 110.798Z" fill="#062C43"/>
<path d="M423.053 67.6338C423.053 67.6338 435.737 86.5477 475.126 84.7725C475.126 84.7725 470.543 39.2999 423.053 67.6338Z" fill="#563718"/>
<path fill-rule="evenodd" clip-rule="evenodd" d="M424.908 69.9895C424.908 69.9889 424.908 69.9884 425.401 69.9047C425.894 69.821 425.894 69.8206 425.894 69.8202L425.894 69.8198C425.894 69.8195 425.894 69.8195 425.894 69.8197L425.894 69.8232L425.898 69.8443C425.903 69.8645 425.909 69.897 425.92 69.9408C425.94 70.0284 425.975 70.1616 426.029 70.3337C426.136 70.678 426.321 71.1782 426.625 71.7825C427.232 72.99 428.318 74.6174 430.228 76.2523C434.044 79.5178 441.207 82.8597 454.564 82.8597V83.8597C441.042 83.8597 433.624 80.4741 429.578 77.0121C427.558 75.2832 426.392 73.5469 425.731 72.2316C425.401 71.5746 425.197 71.0235 425.074 70.632C425.013 70.4362 424.972 70.2803 424.947 70.1708C424.934 70.1161 424.924 70.073 424.918 70.0423C424.915 70.027 424.913 70.0147 424.911 70.0057L424.909 69.9946L424.908 69.9909L424.908 69.9895Z" fill="#563718"/>
<path d="M344.264 87.6164C344.556 88.689 344.249 88.5817 344.497 91.363C345.604 103.805 351.852 106.675 350.903 113.269C349.966 119.786 343.408 120.218 343.744 125.733C344.05 130.789 349.652 131.846 350.903 137.442C352.217 143.312 347.586 149.007 345.626 151.419C329.694 171.013 273.712 166.253 270.435 152.739C268.988 146.781 277.978 139.879 274.391 131.965C272.697 128.222 269.542 127.231 269.678 123.843C269.859 119.445 275.284 118.621 276.085 113.835C276.797 109.574 272.926 107.644 271.56 102.691C269.239 94.2737 276.443 85.4084 277.591 83.9956C293.013 65.0114 340.551 74.0209 344.26 87.6164H344.264Z" fill="#062C43"/>
<path d="M309.444 105.672C329.684 105.672 346.091 90.1587 346.091 71.0215C346.091 51.8843 329.684 36.3706 309.444 36.3706C289.204 36.3706 272.797 51.8843 272.797 71.0215C272.797 90.1587 289.204 105.672 309.444 105.672Z" fill="#062C43"/>
<path d="M306.72 124.908H307.384C338.743 124.908 364.204 150.424 364.204 181.85V217.015H249.9V181.85C249.9 150.424 275.361 124.908 306.72 124.908Z" fill="#F9B7F9"/>
<path d="M310.536 131.813C306.126 131.813 302.387 128.855 300.76 125.215L301.162 121.639C303.886 121.169 310.68 120.137 319.323 119.801L320.039 126.262C318.271 129.554 314.681 131.81 310.536 131.81V131.813Z" fill="#93622C"/>
<path d="M301.819 115.777L302.58 109.012H318.128L318.818 115.226L319.327 119.804C310.684 120.141 303.89 121.173 301.166 121.642L301.823 115.777H301.819Z" fill="#563718"/>
<path d="M309.348 113.735C326.844 113.735 341.027 98.5077 341.027 79.724C341.027 60.9402 326.844 45.7129 309.348 45.7129C291.851 45.7129 277.668 60.9402 277.668 79.724C277.668 98.5077 291.851 113.735 309.348 113.735Z" fill="#93622C"/>
<path d="M337.419 94.503C344.977 94.503 351.103 88.3631 351.103 80.7891C351.103 73.2151 344.977 67.0752 337.419 67.0752C329.861 67.0752 323.734 73.2151 323.734 80.7891C323.734 88.3631 329.861 94.503 337.419 94.503Z" fill="#93622C"/>
<path d="M294.963 80.7891C294.963 88.3635 288.837 94.503 281.278 94.503C273.72 94.503 267.594 88.3635 267.594 80.7891C267.594 73.2146 273.72 67.0752 281.278 67.0752C288.837 67.0752 294.963 73.2146 294.963 80.7891Z" fill="#93622C"/>
<path d="M328.159 52.2999C328.159 52.2999 318.246 71.8537 275.709 67.7484C275.709 67.7484 273.251 46.8631 315.043 40.879C321.966 39.8878 328.159 45.2913 328.159 52.2999Z" fill="#062C43"/>
<path d="M309.443 52.2998C309.443 52.2998 315.821 71.8535 343.19 67.7483C343.19 67.7483 345.087 42.7134 309.443 39.6104V52.3035V52.2998Z" fill="#062C43"/>
<path d="M340.26 83.5556C340.26 83.5556 341.784 76.9094 341.142 71.0215C341.142 71.0215 347.659 73.4921 348.276 80.2011C348.276 80.2011 344.578 67.4895 340.26 83.5556Z" fill="#563718"/>
<path d="M278.623 83.5556C278.623 83.5556 277.099 76.9094 277.741 71.0215C277.741 71.0215 271.224 73.4921 270.607 80.2011C270.607 80.2011 274.305 67.4895 278.623 83.5556Z" fill="#563718"/>
<path d="M324.762 80.7854C326.269 80.7854 327.49 78.9341 327.49 76.6505C327.49 74.3669 326.269 72.5156 324.762 72.5156C323.256 72.5156 322.035 74.3669 322.035 76.6505C322.035 78.9341 323.256 80.7854 324.762 80.7854Z" fill="#062C43"/>
<path d="M297.191 76.6505C297.191 78.9362 295.969 80.7854 294.464 80.7854C292.958 80.7854 291.736 78.9325 291.736 76.6505C291.736 74.3649 292.958 72.5156 294.464 72.5156C295.969 72.5156 297.191 74.3686 297.191 76.6505Z" fill="#062C43"/>
<path fill-rule="evenodd" clip-rule="evenodd" d="M309.257 81.8734V79.3098H310.257V82.7399L309.807 82.7845C309.807 82.7845 309.807 82.7846 309.806 82.7846L309.793 82.7862C309.78 82.7879 309.759 82.7908 309.732 82.7953C309.676 82.8045 309.593 82.82 309.493 82.8451C309.29 82.8956 309.026 82.9822 308.767 83.125C308.262 83.4031 307.795 83.875 307.795 84.754C307.795 85.6139 308.339 86.197 308.986 86.5945C309.306 86.7904 309.629 86.9265 309.875 87.0137C309.997 87.057 310.098 87.0875 310.167 87.1068C310.202 87.1165 310.228 87.1233 310.245 87.1275L310.262 87.1319L310.265 87.1325C310.265 87.1325 310.265 87.1325 310.155 87.6203C310.045 88.1081 310.045 88.108 310.045 88.108L310.043 88.1076L310.04 88.1069L310.031 88.1048L310.001 88.0975C309.976 88.0912 309.941 88.082 309.897 88.0697C309.81 88.0451 309.687 88.008 309.541 87.9562C309.251 87.8533 308.859 87.6896 308.464 87.4468C307.681 86.9669 306.795 86.1167 306.795 84.754C306.795 83.4101 307.559 82.6486 308.285 82.249C308.641 82.0529 308.992 81.9395 309.251 81.8748C309.253 81.8744 309.255 81.8739 309.257 81.8734Z" fill="#062C43"/>
<path d="M303.443 94.921C304.322 98.6195 306.636 102.007 309.352 102.007C312.068 102.007 314.386 98.6121 315.261 94.9099C309.204 96.7665 305.2 95.6718 303.443 94.921Z" fill="#D14A6A"/>
<path fill-rule="evenodd" clip-rule="evenodd" d="M302.727 94.0713L303.639 94.4611C305.297 95.1698 309.18 96.2507 315.113 94.4318L315.946 94.1762L315.746 95.0248C315.295 96.9321 314.47 98.7763 313.389 100.155C312.315 101.525 310.927 102.507 309.351 102.507C307.774 102.507 306.388 101.528 305.314 100.16C304.233 98.783 303.408 96.9417 302.956 95.0364L302.727 94.0713ZM304.182 95.7309C304.629 97.1767 305.295 98.5164 306.101 99.5422C307.082 100.793 308.211 101.507 309.351 101.507C310.49 101.507 311.62 100.791 312.602 99.5383C313.424 98.4904 314.1 97.1158 314.547 95.6358C309.7 96.9467 306.207 96.3911 304.182 95.7309Z" fill="#D7A196"/>
<path d="M315.256 94.9099C315.5 93.8854 315.633 92.8351 315.633 91.8291H303.062C303.062 92.8388 303.195 93.8928 303.439 94.921C305.196 95.6718 309.2 96.7666 315.256 94.9099Z" fill="#FFF3F6"/>
<path fill-rule="evenodd" clip-rule="evenodd" d="M302.562 91.3291H316.133V91.8291C316.133 92.8779 315.994 93.9672 315.743 95.0256L315.676 95.3041L315.403 95.388C309.223 97.2823 305.098 96.1737 303.242 95.3808L303.011 95.2817L302.952 95.0363C302.701 93.9743 302.562 92.8815 302.562 91.8291V91.3291ZM303.574 92.3291C303.606 93.0611 303.707 93.8135 303.869 94.5574C305.613 95.2486 309.316 96.1405 314.833 94.515C314.991 93.785 315.09 93.0472 315.121 92.3291H303.574Z" fill="#D7A196"/>
<path d="M338.777 165.107H288.482C286.262 165.107 284.463 166.91 284.463 169.135V172.789C284.463 175.013 286.262 176.816 288.482 176.816H338.777C340.996 176.816 342.796 175.013 342.796 172.789V169.135C342.796 166.91 340.996 165.107 338.777 165.107Z" fill="#062C43"/>
<path d="M338.777 157.051H288.482C286.262 157.051 284.463 158.854 284.463 161.079C284.463 163.303 286.262 165.107 288.482 165.107H338.777C340.996 165.107 342.796 163.303 342.796 161.079C342.796 158.854 340.996 157.051 338.777 157.051Z" fill="#00B734"/>
<path fill-rule="evenodd" clip-rule="evenodd" d="M318.457 59.3906C318.457 59.3902 318.456 59.3898 318.862 59.0977C319.268 58.8056 319.268 58.8052 319.268 58.8049L319.267 58.8043L319.267 58.8035C319.266 58.8031 319.266 58.8031 319.267 58.8034L319.271 58.8093C319.276 58.8158 319.285 58.8275 319.299 58.8442C319.326 58.8776 319.371 58.931 319.437 59.0025C319.569 59.1455 319.783 59.3613 320.101 59.6358C320.738 60.1846 321.793 60.9684 323.437 61.8726C326.727 63.6814 332.377 65.9709 341.763 67.8237L341.569 68.8048C332.107 66.9369 326.355 64.6181 322.955 62.7489C321.255 61.814 320.142 60.9913 319.449 60.3933C319.102 60.0944 318.86 59.8518 318.701 59.6797C318.622 59.5936 318.564 59.5253 318.524 59.4764C318.504 59.4519 318.489 59.4323 318.477 59.4178L318.464 59.3999L318.459 59.3938L318.458 59.3916L318.457 59.3906Z" fill="#93622C"/>
<path d="M320.017 126.31C320.017 126.31 352.309 119.209 384 181.139C386.277 185.592 387.528 190.522 387.506 195.526C387.466 205.568 376.527 216.622 349.246 212.635C314.444 207.554 302.299 192.468 302.299 192.468L308.761 173.132L350.579 176.376L343.009 155.217L320.017 126.306V126.31Z" fill="#F9B7F9"/>
<path fill-rule="evenodd" clip-rule="evenodd" d="M353.526 177.076C353.526 177.076 353.526 177.076 353.029 177.134L353.526 177.076L353.599 177.706L352.969 177.63C342.551 176.372 331.491 175.373 323.034 174.689C318.806 174.347 315.229 174.083 312.71 173.905C311.45 173.816 310.455 173.749 309.774 173.703C309.503 173.685 309.281 173.671 309.113 173.66L302.875 192.324C316.148 204.586 332.935 209.618 346.466 211.574C353.268 212.558 359.236 212.762 363.502 212.721C365.635 212.7 367.342 212.618 368.514 212.541C369.099 212.503 369.552 212.466 369.856 212.438C370.009 212.425 370.124 212.414 370.201 212.406L370.288 212.397L370.309 212.395L370.314 212.394L370.315 212.394C370.315 212.394 370.315 212.394 370.371 212.891C370.427 213.388 370.426 213.388 370.426 213.388L370.424 213.388L370.418 213.389L370.394 213.391L370.302 213.401C370.221 213.409 370.102 213.42 369.946 213.434C369.633 213.463 369.173 213.5 368.579 213.539C367.39 213.617 365.665 213.7 363.512 213.721C359.206 213.763 353.186 213.556 346.323 212.564C332.606 210.581 315.474 205.451 301.958 192.837L301.723 192.618L308.409 172.613L308.792 172.637L308.761 173.136C308.792 172.637 308.792 172.637 308.792 172.637L309.061 172.654C309.238 172.666 309.5 172.683 309.841 172.706C310.522 172.751 311.519 172.819 312.78 172.908C315.302 173.086 318.883 173.35 323.115 173.692C331.407 174.363 342.206 175.337 352.456 176.562C352.418 176.257 352.366 175.852 352.302 175.37C352.153 174.252 351.938 172.722 351.672 171.076C351.136 167.756 350.406 164.045 349.618 162.224L350.535 161.827C351.382 163.783 352.128 167.626 352.66 170.916C352.927 172.575 353.144 174.114 353.293 175.239C353.368 175.801 353.426 176.26 353.465 176.578C353.485 176.738 353.5 176.862 353.51 176.946L353.522 177.043L353.525 177.074L353.526 177.076Z" fill="#062C43"/>
<path d="M300.819 125.219C300.819 125.219 268.527 118.118 236.836 180.048C234.559 184.501 233.308 189.431 233.33 194.435C233.371 204.477 244.653 217.029 271.926 212.314C304.934 206.603 318.538 191.381 318.538 191.381L311.533 172.186L270.258 175.285L277.827 154.126L300.819 125.215V125.219Z" fill="#F9B7F9"/>
<path fill-rule="evenodd" clip-rule="evenodd" d="M267.838 175.611C267.876 175.306 267.928 174.902 267.992 174.42C268.141 173.302 268.356 171.772 268.622 170.125C269.158 166.806 269.888 163.094 270.676 161.274L269.758 160.877C268.912 162.833 268.166 166.675 267.634 169.966C267.367 171.624 267.15 173.164 267.001 174.288C266.926 174.851 266.868 175.31 266.828 175.628C266.809 175.787 266.794 175.912 266.784 175.996L266.772 176.093L266.768 176.125C266.768 176.126 266.768 176.126 267.265 176.184L266.768 176.125L266.695 176.756L267.325 176.68C277.743 175.422 288.803 174.423 297.26 173.739C301.488 173.397 305.065 173.133 307.584 172.955C308.844 172.866 309.839 172.799 310.519 172.753C310.791 172.735 311.013 172.721 311.181 172.71L317.419 191.374C304.145 203.637 287.359 208.691 273.827 210.671C267.025 211.665 261.057 211.881 256.791 211.849C254.658 211.832 252.951 211.754 251.779 211.679C251.193 211.642 250.741 211.606 250.436 211.58C250.284 211.566 250.168 211.555 250.091 211.548L250.005 211.539L249.984 211.537L249.978 211.536C249.977 211.536 249.977 211.536 249.923 212.033C249.868 212.53 249.869 212.53 249.869 212.53L249.877 212.531L249.901 212.534L249.993 212.543C250.074 212.551 250.193 212.562 250.349 212.576C250.662 212.603 251.122 212.64 251.716 212.677C252.905 212.753 254.63 212.832 256.783 212.849C261.089 212.882 267.109 212.664 273.971 211.66C287.689 209.654 304.82 204.501 318.336 191.887L318.571 191.668L311.885 171.663L311.501 171.687L311.533 172.186C311.501 171.687 311.502 171.687 311.501 171.687L311.233 171.704C311.056 171.716 310.794 171.733 310.453 171.755C309.771 171.801 308.775 171.868 307.514 171.958C304.991 172.136 301.411 172.399 297.179 172.742C288.887 173.413 278.088 174.387 267.838 175.611Z" fill="#062C43"/>
<path d="M331.096 184.172C331.878 182.19 332.284 180.019 332.284 177.985C332.284 171.901 329.299 167.781 322.663 167.781C316.027 167.781 310.646 172.711 310.646 178.795C310.646 181.72 311.754 184.727 313.64 187.061C318.696 187.893 325.161 187.786 331.096 184.172Z" fill="#93622C"/>
<path d="M313.64 187.061C315.678 189.583 318.623 191.325 322.066 191.325C326.48 191.325 329.539 188.115 331.093 184.176C325.159 187.79 318.693 187.897 313.637 187.065L313.64 187.061Z" fill="#563718"/>
</g>
</svg>
